<svg xmlns="http://www.w3.org/2000/svg" viewBox="0 0 260.04 374.64"><defs><style>.a{fill:#e0e5e8;}.b{fill:#eaeff2;}</style></defs><path class="a" d="M260,171.44h0V279.32h0v75.89c0,8.07-2.28,14.88-10.67,18.07-.45.17-.68.89-1,1.36H11.71a13,13,0,0,0-2.34-1.9C5,370.54,1.9,367.22.88,362.41a44.57,44.57,0,0,1-.79-9Q0,316.36,0,279.32V171.44c0-2.19.05-4.38.05-6.57q0-72.3.05-144.59C.1,12.86.92,5.54,8.64,1.47c.43-.23.59-1,.88-1.47H182.6c0,24.09.07,48.18-.08,72.27,0,.22,0,.43,0,.63a6.16,6.16,0,0,0,.32,2,2.79,2.79,0,0,0,.35.69,3.08,3.08,0,0,0,.51.51,3,3,0,0,0,.71.37,3.68,3.68,0,0,0,.81.21l.14,0a3.12,3.12,0,0,0,.44,0l.56,0H187c24.1-.15,48.19-.08,72.28-.08a30.14,30.14,0,0,1,.68,4.54Q260,126.33,260,171.44Z" transform="translate(0 0)"/><path class="b" d="M259.28,76.68c-24.09,0-48.18-.07-72.28.08h-.63l-.56,0-.44,0-.14,0a4.34,4.34,0,0,1-.81-.21,3,3,0,0,1-.71-.37,3.08,3.08,0,0,1-.51-.51,3.18,3.18,0,0,1-.35-.69,6.16,6.16,0,0,1-.32-2c0-.2,0-.41,0-.63.15-24.09.08-48.18.08-72.27h.73c1,1.09,1.88,2.22,2.9,3.25q35.07,35.1,70.15,70.18C257.38,74.43,258.32,75.6,259.28,76.68Z" transform="translate(0 0)"/></svg>