<svg xmlns="http://www.w3.org/2000/svg" viewBox="0 0 373.9 310.41"><defs><style>.cls-1{fill:#fdd562;}.cls-2{fill:#f6c35a;}.cls-3{fill:#f6c359;}.cls-4{fill:#eceff1;}</style></defs><g id="Calque_2" data-name="Calque 2"><g id="Calque_1-2" data-name="Calque 1"><path class="cls-1" d="M373.9,24.32v238.8H.11c0-1.58-.11-3.15-.11-4.73v-148c0-1.45.08-2.91.12-4.36.23-.81.5-1.6.67-2.42a29.41,29.41,0,0,1,9.47-16.37c6.38-5.7,14-7.56,22.2-7.61,1,0,1.94.07,2.92.07H208.06c1,0,1.95,0,2.92-.07,15.75-1.18,25-11.22,29.8-26.74a10.37,10.37,0,0,0,1.88-2.12c3.63-7.35,7.17-14.75,10.74-22.14,2.09-4.1,4.11-8.25,6.3-12.31,5.14-9.55,13.06-15.78,23.95-16,21-.51,42-.31,63,0a24.69,24.69,0,0,1,19.75,10.16C369.55,14.61,371.45,19.67,373.9,24.32Z"/><path class="cls-2" d="M373.9,285.76c-1.89,4-3.28,8.38-5.77,12-6.4,9.31-15.92,12.65-26.85,12.65q-37.78,0-75.56,0H33.17c-11,0-20.57-3.22-27.37-12.45a27.38,27.38,0,0,1-5.7-15.5c-.22-6.44,0-12.89,0-19.34H373.9Z"/><path class="cls-3" d="M.12,106.07C.26,88.68-.3,71.25.75,53.92,1.56,40.53,13.63,30,27.08,28.81c1.21-.1,2.43-.16,3.65-.16l222.67,0c-3.57,7.39-7.11,14.79-10.74,22.14a10.37,10.37,0,0,1-1.88,2.12c-1.58,0-3.16.09-4.74.09H38.16c-1,0-1.95.08-2.92,0-2.23-.23-3,.73-2.94,2.94.13,7.9.12,15.81.16,23.72-8.25,0-15.82,1.91-22.2,7.61A29.41,29.41,0,0,0,.79,103.65C.62,104.47.35,105.26.12,106.07Z"/><path class="cls-4" d="M32.46,79.67c0-7.91,0-15.82-.16-23.72,0-2.21.71-3.17,2.94-2.94,1,.09,1.95,0,2.92,0H236c1.58,0,3.16-.06,4.74-.09C236,68.45,226.73,78.49,211,79.67c-1,.07-1.95.07-2.92.07H35.38C34.4,79.74,33.43,79.7,32.46,79.67Z"/></g></g></svg>